# AST/ASF file generated using VICON BodyLanguage
# -----------------------------------------------
:version 1.10
:name VICON
:units
  mass 1.0
  length 0.45
  angle deg
:documentation
   .ast/.asf automatically generated from VICON data using
   VICON BodyBuilder and BodyLanguage model FoxedUp or BRILLIANT.MOD
:root
   order TX TY TZ RX RY RZ
   axis XYZ
   position 0 0 0  
   orientation 0 0 0 
:bonedata
  begin
     id 1 
     name lhipjoint
     direction 0.714689 -0.624256 0.315473 
     length 2.45343 
     axis 0 0 0  XYZ
  end
  begin
     id 2 
     name lfemur
     direction 0.34202 -0.939693 0  
     length 6.59069  
     axis 0 0 20  XYZ
    dof rx ry rz
    limits (-160.0 20.0)
           (-70.0 70.0)
           (-60.0 70.0)
  end
  begin
     id 3 
     name ltibia
     direction 0.34202 -0.939693 0   
     length 6.73476   
     axis 0 0 20   XYZ
    dof rx
    limits (-10.0 170.0)
  end
  begin
     id 4 
     name lfoot
     direction 0.0718085 -0.197292 0.977711   
     length 1.52607   
     axis -90 7.62852e-016 20   XYZ
    dof rx rz
    limits (-45.0 90.0)
           (-70.0 20.0)
  end
  begin
     id 5 
     name ltoes
     direction 1.53553e-011 -4.22024e-011 1   
     length 0.777832   
     axis -90 7.62852e-016 20   XYZ
    dof rx
    limits (-90.0 20.0)
  end
  begin
     id 6 
     name rhipjoint
     direction -0.727419 -0.612432 0.309497   
     length 2.50079  
     axis 0 0 0  XYZ 
  end
  begin
     id 7 
     name rfemur
     direction -0.34202 -0.939693 0   
     length 6.51665   
     axis 0 0 -20   XYZ
    dof rx ry rz
    limits (-160.0 20.0)
           (-70.0 70.0)
           (-70.0 60.0)
  end
  begin
     id 8 
     name rtibia
     direction -0.34202 -0.939693 0   
     length 6.48919   
     axis 0 0 -20   XYZ
    dof rx
    limits (-10.0 170.0)
 end
 begin
     id 9 
     name rfoot
     direction -0.112205 -0.308282 0.944655   
     length 1.68717  
     axis -90 -7.62852e-016 -20   XYZ
    dof rx rz
    limits (-45.0 90.0)
           (-20.0 70.0)
  end
  begin
     id 10 
     name rtoes
     direction -1.53583e-011 -4.21993e-011 1   
     length 0.846859   
     axis -90 -7.62852e-016 -20   XYZ
    dof rx
    limits (-90.0 20.0)
  end
  begin
     id 11 
     name lowerback
     direction -0.00119603 0.996364 -0.0851956   
     length 1.67242   
     axis 0 0 0   XYZ
    dof rx ry rz
    limits (-20.0 45.0)
           (-30.0 30.0)
           (-30.0 30.0)
  end
  begin
     id 12 
     name upperback
     direction -0.00531001 0.998318 0.0577248   
     length 1.64819   
     axis 0 0 0   XYZ
    dof rx ry rz
    limits (-20.0 45.0)
           (-30.0 30.0)
           (-30.0 30.0)
  end
  begin
     id 13 
     name thorax
     direction -0.00653676 0.995132 0.0983291   
     length 1.67429   
     axis 0 0 0   XYZ
    dof rx ry rz
    limits (-20.0 45.0)
           (-30.0 30.0)
           (-30.0 30.0)
  end
  begin
     id 14 
     name lowerneck
     direction 0.0141424 0.999886 0.00525412   
     length 1.59623   
     axis 0 0 0   XYZ
    dof rx ry rz
    limits (-20.0 45.0)
           (-30.0 30.0)
           (-30.0 30.0)
  end
  begin
     id 15 
     name upperneck
     direction -0.0640064 0.987178 -0.146232   
     length 1.59576   
     axis 0 0 0   XYZ
    dof rx ry rz
    limits (-20.0 45.0)
           (-30.0 30.0)
           (-30.0 30.0)
  end
  begin
     id 16
     name head
     direction -0.0222942 0.998496 -0.0500859  
     length 1.60959  
     axis 0 0 0   XYZ
    dof rx ry rz
    limits (-20.0 45.0)
           (-30.0 30.0)
           (-30.0 30.0)
  end
  begin
     id 17 
     name lclavicle
     direction 0.908549 0.392612 0.142806  
     length 2.80649  
     axis 0 0 0   XYZ
    dof ry rz
    limits (-20.0 10.0)
           (0.0 20.0)
  end
  begin
     id 18 
     name lhumerus
     direction 1 -4.48968e-011 1.08832e-028   
     length 4.2884   
     axis -180 -30 -90   XYZ
    dof rx ry rz
    limits (-60.0 90.0)
           (-90.0 90.0)
           (-90.0 90.0)
  end
  begin
     id 19
     name lradius
     direction 1 -4.48952e-011 -3.02642e-028   
     length 3.06552   
     axis -180 -30 -90   XYZ
    dof rx
    limits (-10.0 170.0)
  end
  begin
     id 20
     name lwrist
     direction 1 -4.49014e-011 1.58672e-027   
     length 1.53276   
     axis -1.65735e-015 90 90   XYZ
    dof ry
    limits (-180.0 0.0)
 end
  begin
     id 21 
     name lhand
     direction 1 -4.48928e-011 3.17344e-027   
     length 0.753045   
     axis -2.02492e-015 90 90   XYZ
    dof rx rz
    limits (-90.0 90.0)
           (-45.0 45.0)
  end
  begin
     id 22 
     name lfingers
     direction 1 -4.48958e-011 6.34687e-027   
     length 0.607124   
     axis -4.04985e-015 90 90   XYZ
    dof rx
    limits (0.0 90.0)
  end
  begin
     id 23
     name lthumb
     direction 0.707107 -6.34905e-011 0.707107   
     length 0.871712   
     axis -90 45 2.85299e-015   XYZ
    dof rx rz
    limits (-45.0 45.0)
           (-45.0 45.0)
  end
  begin
     id 24 
     name rclavicle
     direction -0.885098 0.45949 0.0739604   
     length 2.9478  
     axis 0 0 0   XYZ 
    dof ry rz
    limits (-10.0 20.0)
           (-20.0 0.0)
  end
  begin
     id 25 
     name rhumerus
     direction -1 -4.4898e-011 -2.61739e-027  
     length 4.52172   
     axis -180 30 90   XYZ
    dof rx ry rz
    limits (-90.0 60.0)
           (-90.0 90.0)
           (-90.0 90.0)
  end
  begin
     id 26 
     name rradius
     direction -1 -4.48945e-011 9.02552e-028   
     length 2.8914   
     axis -180 30 90   XYZ
    dof rx
    limits (-10.0 170.0)
  end
  begin
     id 27 
     name rwrist
     direction -1 -4.49018e-011 1.58672e-027   
     length 1.4457   
     axis -1.65735e-015 -90 -90   XYZ
    dof ry
    limits (-180.0 0.0)
  end
  begin
     id 28
     name rhand
     direction -1 -4.48825e-011 3.17344e-027   
     length 0.680541   
     axis -2.02492e-015 -90 -90   XYZ
    dof rx rz
    limits (-90.0 90.0)
           (-45.0 45.0)
  end
  begin
     id 29
     name rfingers
     direction -1 -4.49067e-011 6.34687e-027   
     length 0.54867   
     axis -4.04985e-015 -90 -90   XYZ
    dof rx
    limits (0.0 90.0)
  end
  begin
     id 30
     name rthumb
     direction -0.707107 -6.34833e-011 0.707107   
     length 0.787783   
     axis -90 -45 -2.85299e-015   XYZ
    dof rx rz
    limits (-45.0 45.0)
           (-45.0 45.0)
  end
:hierarchy
  begin
    root lhipjoint rhipjoint lowerback
    lhipjoint lfemur
    lfemur ltibia
    ltibia lfoot
    lfoot ltoes
    rhipjoint rfemur
    rfemur rtibia
    rtibia rfoot
    rfoot rtoes
    lowerback upperback
    upperback thorax
    thorax lowerneck lclavicle rclavicle
    lowerneck upperneck
    upperneck head
    lclavicle lhumerus
    lhumerus lradius
    lradius lwrist
    lwrist lhand lthumb
    lhand lfingers
    rclavicle rhumerus
    rhumerus rradius
    rradius rwrist
    rwrist rhand rthumb
    rhand rfingers
  end

#!OML:ASF E:\emotionWalksFemale\Project 1\Capture day 1\Session 1\Female1.ASF
:FULLY-SPECIFIED
:DEGREES
952
root 7.57045 15.4373 26.465 -166.77 15.9557 -168.421
lowerback 12.9294 2.06675 -7.99344
upperback -2.06695 1.38962 -1.59993
thorax -9.69956 1.0934 2.47865
lowerneck -7.39406 -0.625469 -4.12617
upperneck 10.1577 -1.33435 12.9969
head 4.36043 0.113833 4.64881
rclavicle 3.65764e-014 2.22639e-014
rhumerus -50.8128 26.5358 -107.058
rradius 47.5018
rwrist -10.3312
rhand 8.79882 -51.6928
rfingers 7.12502
rthumb -146.014 461.52
lclavicle 3.65764e-014 2.22639e-014
lhumerus -39.7095 7.08201 66.2254
lradius 43.6007
lwrist -2.12375
lhand -7.60435 -31.592
lfingers 7.12502
lthumb 18.2895 -2.43182
rfemur -23.957 -0.133105 30.0427
rtibia 56.8572
rfoot -6.21019 -17.4246
rtoes -6.09267
lfemur -28.3614 -7.09299 -12.6795
ltibia 40.0083
lfoot -25.1802 10.7728
ltoes -17.8879
953
root 7.57294 15.4292 26.4306 -167.009 15.9406 -168.424
lowerback 12.9307 2.09217 -7.91012
upperback -1.8993 1.44795 -1.60987
thorax -9.51712 1.10779 2.41296
lowerneck -7.6227 -0.650414 -3.95137
upperneck 10.2526 -1.38586 12.8705
head 4.43176 0.0978054 4.57896
rclavicle -1.59028e-014 6.36111e-015
rhumerus -50.5842 26.5167 -106.931
rradius 47.6029
rwrist -10.2672
rhand 8.69446 -51.8745
rfingers 7.12502
rthumb -146.113 461.317
lclavicle -1.59028e-014 6.36111e-015
lhumerus -39.3162 7.17943 66.3406
lradius 43.3462
lwrist -2.45932
lhand -7.61405 -31.8443
lfingers 7.12502
lthumb 18.2802 -2.68329
rfemur -24.0987 -0.377807 30.2191
rtibia 56.4963
rfoot -6.66082 -17.6614
rtoes -7.91951
lfemur -27.9798 -7.43829 -12.7699
ltibia 40.0878
lfoot -25.2761 11.2338
ltoes -18.404
954
root 7.576 15.4251 26.4005 -167.28 15.9341 -168.603
lowerback 12.9741 2.10686 -8.04068
upperback -1.78372 1.45204 -1.61357
thorax -9.41907 1.11238 2.48278
lowerneck -7.60733 -0.69175 -3.84691
upperneck 10.2634 -1.44185 12.6383
head 4.43516 0.0561871 4.48381
rclavicle -4.85035e-014 -5.40694e-014
rhumerus -50.4586 26.5693 -106.814
rradius 47.5862
rwrist -10.1908
rhand 8.79163 -51.8682
rfingers 7.12502
rthumb -146.021 461.343
lclavicle -4.85035e-014 -5.40694e-014
lhumerus -38.9851 7.19318 66.5203
lradius 42.9989
lwrist -2.68371
lhand -7.61138 -31.8733
lfingers 7.12502
lthumb 18.2827 -2.71249
rfemur -24.2781 -0.565217 30.2418
rtibia 56.1633
rfoot -7.22835 -17.951
rtoes -8.78168
lfemur -27.6507 -7.72172 -13.0391
ltibia 40.1877
lfoot -25.3564 11.5039
ltoes -18.8151
955
root 7.57951 15.415 26.3778 -167.415 15.9268 -168.71
lowerback 13.0795 2.13534 -8.14472
upperback -1.82422 1.46145 -1.58554
thorax -9.53068 1.12734 2.56535
lowerneck -7.36428 -0.725835 -3.79077
upperneck 10.2788 -1.48281 12.4755
head 4.39994 0.0203783 4.41891
rclavicle -1.55052e-014 2.8625e-014
rhumerus -50.5298 26.4044 -106.68
rradius 47.5702
rwrist -9.9527
rhand 8.93907 -51.6309
rfingers 7.12502
rthumb -145.881 461.612
lclavicle -1.55052e-014 2.8625e-014
lhumerus -38.7875 6.87032 66.7393
lradius 42.6198
lwrist -2.49393
lhand -3.557 -26.0415
lfingers 7.12502
lthumb 22.1793 2.70608
rfemur -24.6188 -0.614854 30.356
rtibia 55.818
rfoot -7.948 -18.1691
rtoes -8.5054
lfemur -27.4917 -7.72339 -13.2879
ltibia 40.3073
lfoot -24.9164 12.2525
ltoes -23.144
956
root 7.58315 15.4061 26.3502 -167.441 16.1139 -168.675
lowerback 13.1658 2.23129 -8.23914
upperback -1.97602 1.55757 -1.49973
thorax -9.76675 1.1898 2.68376
lowerneck -7.18554 -0.70699 -3.72698
upperneck 10.5352 -1.46579 12.3313
head 4.44374 0.0284461 4.36686
rclavicle 6.36111e-015 -9.85972e-014
rhumerus -50.7701 26.2774 -106.595
rradius 47.6541
rwrist -9.67194
rhand 8.99677 -51.6138
rfingers 7.12502
rthumb -145.826 461.641
lclavicle 6.36111e-015 -9.85972e-014
lhumerus -38.7711 6.65317 66.9262
lradius 42.2222
lwrist -2.38997
lhand -8.10498 -33.0829
lfingers 7.12502
lthumb 17.8078 -3.87829
rfemur -25.0051 -0.518871 30.5399
rtibia 55.4396
rfoot -8.78227 -18.3605
rtoes -8.32728
lfemur -27.3342 -7.75112 -13.3598
ltibia 40.4458
lfoot -25.0147 12.4999
ltoes -23.4364
957
root 7.58641 15.404 26.3174 -167.508 16.3073 -168.66
lowerback 12.617 2.24012 -8.13863
upperback -1.73768 1.65679 -1.53964
thorax -9.18994 1.20866 2.58478
lowerneck -7.12732 -0.644048 -3.62172
upperneck 10.4782 -1.3814 12.301
head 4.40875 0.0693665 4.34315
rclavicle -2.18663e-014 -6.36111e-015
rhumerus -50.32 26.5356 -106.552
rradius 47.5905
rwrist -9.80135
rhand 8.77348 -51.6267
rfingers 7.12502
rthumb -146.038 461.581
lclavicle -2.18663e-014 -6.36111e-015
lhumerus -38.3122 6.61102 67.0103
lradius 41.9243
lwrist -2.64066
lhand -8.55934 -33.813
lfingers 7.12502
lthumb 17.3706 -4.56922
rfemur -25.2977 -0.493095 30.6956
rtibia 54.9925
rfoot -9.50858 -18.5411
rtoes -7.94852
lfemur -27.125 -8.07143 -13.3471
ltibia 40.5613
lfoot -25.7397 11.9527
ltoes -17.941
958
root 7.59559 15.3975 26.3154 -167.408 16.003 -168.81
lowerback 13.2274 2.17923 -8.39947
upperback -2.11562 1.4496 -1.43135
thorax -9.95392 1.15773 2.8667
lowerneck -7.10273 -0.651119 -3.72118
upperneck 10.8984 -1.40366 12.2723
head 4.53353 0.0699658 4.35688
rclavicle -5.48646e-014 1.59028e-014
rhumerus -50.743 26.7027 -106.73
rradius 47.5848
rwrist -9.9015
rhand 8.57379 -51.4394
rfingers 7.12502
rthumb -146.228 461.727
lclavicle -5.48646e-014 1.59028e-014
lhumerus -38.5684 6.3458 67.1939
lradius 41.6704
lwrist -3.15751
lhand -8.12398 -32.9989
lfingers 7.12502
lthumb 17.7895 -3.79262
rfemur -25.9473 -0.788701 30.91
rtibia 54.553
rfoot -9.95402 -18.8133
rtoes -7.81414
lfemur -27.3843 -8.2145 -13.3503
ltibia 40.6434
lfoot -26.0773 11.2061
ltoes -14.8915
959
root 7.59797 15.3886 26.2716 -167.741 16.3409 -168.842
lowerback 12.913 2.2299 -8.31332
upperback -1.7175 1.59112 -1.46931
thorax -9.34049 1.19221 2.76473
lowerneck -7.82212 -0.675697 -3.82514
upperneck 11.2353 -1.46679 12.3659
head 4.76662 0.0718929 4.41073
rclavicle 2.26615e-014 4.45278e-014
rhumerus -50.2442 27.0373 -106.575
rradius 47.5707
rwrist -9.74283
rhand 8.59169 -51.3285
rfingers 7.12502
rthumb -146.211 461.841
lclavicle 2.26615e-014 4.45278e-014
lhumerus -37.7878 6.42736 67.3108
lradius 41.1946
lwrist -3.49323
lhand -4.92576 -28.6619
lfingers 7.12502
lthumb 20.8647 0.236157
rfemur -25.9621 -0.762115 30.9647
rtibia 54.1344
rfoot -10.497 -18.8419
rtoes -8.21301
lfemur -26.7672 -8.30606 -13.5712
ltibia 40.685
lfoot -26.562 11.286
ltoes -12.995
960
root 7.59622 15.3768 26.219 -168.208 16.8615 -168.823
lowerback 12.8628 2.42827 -8.24104
upperback -1.46127 1.89015 -1.49855
thorax -9.05838 1.31788 2.63654
lowerneck -8.11396 -0.705688 -3.8257
upperneck 11.482 -1.52931 12.4207
head 4.8982 0.0643868 4.431
rclavicle 9.93923e-015 2.8625e-014
rhumerus -50.1565 26.904 -106.379
rradius 47.7038
rwrist -9.46722
rhand 8.53922 -51.2487
rfingers 7.12502
rthumb -146.26 461.91
lclavicle 9.93923e-015 2.8625e-014
lhumerus -37.3428 6.19045 67.4826
lradius 40.9113
lwrist -3.66296
lhand -3.58845 -28.028
lfingers 7.12502
lthumb 22.1491 0.723216
rfemur -25.7851 -0.570147 30.9877
rtibia 53.7305
rfoot -11.2636 -18.9554
rtoes -8.07525
lfemur -25.8736 -8.49856 -13.8153
ltibia 40.6743
lfoot -27.0698 11.4778
ltoes -9.84079
961
root 7.60807 15.3666 26.2367 -167.808 16.2282 -169.212
lowerback 12.8839 2.21235 -8.61826
upperback -1.77078 1.52052 -1.47601
thorax -9.38559 1.17818 2.9424
lowerneck -7.43168 -0.606274 -3.82491
upperneck 11.2311 -1.36474 12.4178
head 4.68925 0.118451 4.4314
rclavicle -5.84427e-014 -1.27222e-013
rhumerus -50.3867 26.7697 -106.345
rradius 47.8267
rwrist -9.35901
rhand 8.30405 -51.1584
rfingers 7.12502
rthumb -146.484 461.952
lclavicle -5.84427e-014 -1.27222e-013
lhumerus -37.3191 5.92911 67.6334
lradius 40.6836
lwrist -4.07043
lhand -9.28334 -34.3344
lfingers 7.12502
lthumb 16.6737 -5.03056
rfemur -26.9539 -0.948381 31.0653
rtibia 53.3974
rfoot -12.1078 -19.4374
rtoes -7.19259
lfemur -26.6375 -8.54729 -13.9395
ltibia 40.6594
lfoot -26.9469 10.7284
ltoes -8.23438
